%TF.GenerationSoftware,KiCad,Pcbnew,9.0.6-rc1*%
%TF.CreationDate,2025-12-07T23:50:49+09:00*%
%TF.ProjectId,tp4056,74703430-3536-42e6-9b69-6361645f7063,rev?*%
%TF.SameCoordinates,Original*%
%TF.FileFunction,Copper,L1,Top*%
%TF.FilePolarity,Positive*%
%FSLAX46Y46*%
G04 Gerber Fmt 4.6, Leading zero omitted, Abs format (unit mm)*
G04 Created by KiCad (PCBNEW 9.0.6-rc1) date 2025-12-07 23:50:49*
%MOMM*%
%LPD*%
G01*
G04 APERTURE LIST*
G04 Aperture macros list*
%AMRoundRect*
0 Rectangle with rounded corners*
0 $1 Rounding radius*
0 $2 $3 $4 $5 $6 $7 $8 $9 X,Y pos of 4 corners*
0 Add a 4 corners polygon primitive as box body*
4,1,4,$2,$3,$4,$5,$6,$7,$8,$9,$2,$3,0*
0 Add four circle primitives for the rounded corners*
1,1,$1+$1,$2,$3*
1,1,$1+$1,$4,$5*
1,1,$1+$1,$6,$7*
1,1,$1+$1,$8,$9*
0 Add four rect primitives between the rounded corners*
20,1,$1+$1,$2,$3,$4,$5,0*
20,1,$1+$1,$4,$5,$6,$7,0*
20,1,$1+$1,$6,$7,$8,$9,0*
20,1,$1+$1,$8,$9,$2,$3,0*%
G04 Aperture macros list end*
%TA.AperFunction,SMDPad,CuDef*%
%ADD10RoundRect,0.250000X-0.450000X0.350000X-0.450000X-0.350000X0.450000X-0.350000X0.450000X0.350000X0*%
%TD*%
%TA.AperFunction,SMDPad,CuDef*%
%ADD11RoundRect,0.150000X0.150000X-0.825000X0.150000X0.825000X-0.150000X0.825000X-0.150000X-0.825000X0*%
%TD*%
%TA.AperFunction,SMDPad,CuDef*%
%ADD12R,3.000000X2.290000*%
%TD*%
%TA.AperFunction,SMDPad,CuDef*%
%ADD13RoundRect,0.250000X-0.350000X-0.450000X0.350000X-0.450000X0.350000X0.450000X-0.350000X0.450000X0*%
%TD*%
%TA.AperFunction,ComponentPad*%
%ADD14C,2.000000*%
%TD*%
%TA.AperFunction,ComponentPad*%
%ADD15R,1.700000X1.700000*%
%TD*%
%TA.AperFunction,ComponentPad*%
%ADD16C,1.700000*%
%TD*%
%TA.AperFunction,SMDPad,CuDef*%
%ADD17RoundRect,0.250000X-0.475000X0.337500X-0.475000X-0.337500X0.475000X-0.337500X0.475000X0.337500X0*%
%TD*%
%TA.AperFunction,SMDPad,CuDef*%
%ADD18RoundRect,0.250000X0.325000X0.450000X-0.325000X0.450000X-0.325000X-0.450000X0.325000X-0.450000X0*%
%TD*%
%TA.AperFunction,SMDPad,CuDef*%
%ADD19R,0.400000X1.560000*%
%TD*%
%TA.AperFunction,SMDPad,CuDef*%
%ADD20RoundRect,0.250000X0.337500X0.475000X-0.337500X0.475000X-0.337500X-0.475000X0.337500X-0.475000X0*%
%TD*%
%TA.AperFunction,ComponentPad*%
%ADD21RoundRect,0.250000X0.350000X0.625000X-0.350000X0.625000X-0.350000X-0.625000X0.350000X-0.625000X0*%
%TD*%
%TA.AperFunction,ComponentPad*%
%ADD22O,1.200000X1.750000*%
%TD*%
%TA.AperFunction,ComponentPad*%
%ADD23O,1.800000X1.800000*%
%TD*%
%TA.AperFunction,ComponentPad*%
%ADD24O,2.000000X1.300000*%
%TD*%
%TA.AperFunction,SMDPad,CuDef*%
%ADD25RoundRect,0.250000X0.350000X0.450000X-0.350000X0.450000X-0.350000X-0.450000X0.350000X-0.450000X0*%
%TD*%
%TA.AperFunction,SMDPad,CuDef*%
%ADD26R,0.650000X1.560000*%
%TD*%
%TA.AperFunction,ViaPad*%
%ADD27C,0.800000*%
%TD*%
%TA.AperFunction,Conductor*%
%ADD28C,0.200000*%
%TD*%
%TA.AperFunction,Conductor*%
%ADD29C,0.250000*%
%TD*%
G04 APERTURE END LIST*
D10*
%TO.P,R5,1*%
%TO.N,BAT+*%
X152654000Y-89154000D03*
%TO.P,R5,2*%
%TO.N,Net-(U2-VCC)*%
X152654000Y-91154000D03*
%TD*%
D11*
%TO.P,U1,1,TEMP*%
%TO.N,GND*%
X141871000Y-96751000D03*
%TO.P,U1,2,PROG*%
%TO.N,Net-(U1-PROG)*%
X143141000Y-96751000D03*
%TO.P,U1,3,GND*%
%TO.N,GND*%
X144411000Y-96751000D03*
%TO.P,U1,4,VCC*%
%TO.N,VIN*%
X145681000Y-96751000D03*
%TO.P,U1,5,BAT*%
%TO.N,BAT+*%
X145681000Y-91801000D03*
%TO.P,U1,6,~{STDBY}*%
%TO.N,Net-(U1-~{STDBY})*%
X144411000Y-91801000D03*
%TO.P,U1,7,~{CHRG}*%
%TO.N,Net-(U1-~{CHRG})*%
X143141000Y-91801000D03*
%TO.P,U1,8,CE*%
%TO.N,VIN*%
X141871000Y-91801000D03*
D12*
%TO.P,U1,9,PP*%
%TO.N,GND*%
X143776000Y-94276000D03*
%TD*%
D13*
%TO.P,R2,1*%
%TO.N,Net-(D2-K)*%
X140516000Y-86546000D03*
%TO.P,R2,2*%
%TO.N,Net-(U1-~{STDBY})*%
X142516000Y-86546000D03*
%TD*%
D14*
%TO.P,SW1,1,1*%
%TO.N,GND*%
X164338000Y-99568000D03*
X164338000Y-106068000D03*
%TO.P,SW1,2,2*%
%TO.N,Net-(J3-Pin_7)*%
X159838000Y-99568000D03*
X159838000Y-106068000D03*
%TD*%
D15*
%TO.P,J6,1,Pin_1*%
%TO.N,BAT-*%
X154686000Y-98094000D03*
D16*
%TO.P,J6,2,Pin_2*%
%TO.N,GND*%
X154686000Y-100634000D03*
%TD*%
D17*
%TO.P,C2,1*%
%TO.N,Net-(U2-VCC)*%
X145516000Y-86008500D03*
%TO.P,C2,2*%
%TO.N,BAT-*%
X145516000Y-88083500D03*
%TD*%
D15*
%TO.P,J8,1,Pin_1*%
%TO.N,BAT+*%
X154686000Y-87934000D03*
D16*
%TO.P,J8,2,Pin_2*%
X154686000Y-90474000D03*
%TD*%
D15*
%TO.P,J3,1,Pin_1*%
%TO.N,unconnected-(J3-Pin_1-Pad1)*%
X155194000Y-105918000D03*
D16*
%TO.P,J3,2,Pin_2*%
%TO.N,unconnected-(J3-Pin_2-Pad2)*%
X152654000Y-105918000D03*
%TO.P,J3,3,Pin_3*%
%TO.N,unconnected-(J3-Pin_3-Pad3)*%
X150114000Y-105918000D03*
%TO.P,J3,4,Pin_4*%
%TO.N,unconnected-(J3-Pin_4-Pad4)*%
X147574000Y-105918000D03*
%TO.P,J3,5,Pin_5*%
%TO.N,unconnected-(J3-Pin_5-Pad5)*%
X145034000Y-105918000D03*
%TO.P,J3,6,Pin_6*%
%TO.N,unconnected-(J3-Pin_6-Pad6)*%
X142494000Y-105918000D03*
%TO.P,J3,7,Pin_7*%
%TO.N,Net-(J3-Pin_7)*%
X139954000Y-105918000D03*
%TO.P,J3,8,Pin_8*%
%TO.N,unconnected-(J3-Pin_8-Pad8)*%
X137414000Y-105918000D03*
%TO.P,J3,9,Pin_9*%
%TO.N,unconnected-(J3-Pin_9-Pad9)*%
X134874000Y-105918000D03*
%TO.P,J3,10,Pin_10*%
%TO.N,unconnected-(J3-Pin_10-Pad10)*%
X132334000Y-105918000D03*
%TD*%
D18*
%TO.P,D2,1,K*%
%TO.N,Net-(D2-K)*%
X134863000Y-86156000D03*
%TO.P,D2,2,A*%
%TO.N,Net-(D1-A)*%
X132813000Y-86156000D03*
%TD*%
D19*
%TO.P,U4,1,D*%
%TO.N,unconnected-(U4-D-Pad1)*%
X150676000Y-94009000D03*
%TO.P,U4,2,S*%
%TO.N,BAT-*%
X150026000Y-94009000D03*
%TO.P,U4,3,S*%
X149366000Y-94009000D03*
%TO.P,U4,4,G*%
%TO.N,/G1*%
X148716000Y-94009000D03*
%TO.P,U4,5,G*%
%TO.N,Net-(U2-OC)*%
X148716000Y-99423000D03*
%TO.P,U4,6,S*%
%TO.N,GND*%
X149366000Y-99423000D03*
%TO.P,U4,7,S*%
X150026000Y-99423000D03*
%TO.P,U4,8,D*%
%TO.N,unconnected-(U4-D-Pad8)*%
X150676000Y-99423000D03*
%TD*%
D15*
%TO.P,SW2,1,A*%
%TO.N,Net-(J2-Pin_1)*%
X164592000Y-91440000D03*
D16*
%TO.P,SW2,2,B*%
%TO.N,BAT+*%
X164592000Y-93980000D03*
%TO.P,SW2,3,C*%
%TO.N,unconnected-(SW2-C-Pad3)*%
X164592000Y-96520000D03*
%TD*%
D20*
%TO.P,C1,1*%
%TO.N,BAT+*%
X146305500Y-101904000D03*
%TO.P,C1,2*%
%TO.N,GND*%
X144230500Y-101904000D03*
%TD*%
D21*
%TO.P,J4,1,Pin_1*%
%TO.N,BAT+*%
X161290000Y-96520000D03*
D22*
%TO.P,J4,2,Pin_2*%
%TO.N,BAT-*%
X159290000Y-96520000D03*
%TD*%
D13*
%TO.P,R1,1*%
%TO.N,Net-(D1-K)*%
X137156000Y-102666000D03*
%TO.P,R1,2*%
%TO.N,Net-(U1-~{CHRG})*%
X139156000Y-102666000D03*
%TD*%
D23*
%TO.P,J1,1,VBUS*%
%TO.N,VIN*%
X135484000Y-92230000D03*
%TO.P,J1,2,GND*%
%TO.N,GND*%
X135484000Y-95830000D03*
D24*
%TO.P,J1,3,SHIELD*%
X131684000Y-89710000D03*
X131684000Y-98350000D03*
%TD*%
D13*
%TO.P,R6,1*%
%TO.N,/OC*%
X148266000Y-102296000D03*
%TO.P,R6,2*%
%TO.N,GND*%
X150266000Y-102296000D03*
%TD*%
D20*
%TO.P,C3,1*%
%TO.N,VIN*%
X142553500Y-88796000D03*
%TO.P,C3,2*%
%TO.N,GND*%
X140478500Y-88796000D03*
%TD*%
D25*
%TO.P,R9,1*%
%TO.N,VIN*%
X138648000Y-86156000D03*
%TO.P,R9,2*%
%TO.N,Net-(D1-A)*%
X136648000Y-86156000D03*
%TD*%
D15*
%TO.P,J2,1,Pin_1*%
%TO.N,Net-(J2-Pin_1)*%
X155194000Y-83058000D03*
D16*
%TO.P,J2,2,Pin_2*%
%TO.N,GND*%
X152654000Y-83058000D03*
%TO.P,J2,3,Pin_3*%
%TO.N,unconnected-(J2-Pin_3-Pad3)*%
X150114000Y-83058000D03*
%TO.P,J2,4,Pin_4*%
%TO.N,unconnected-(J2-Pin_4-Pad4)*%
X147574000Y-83058000D03*
%TO.P,J2,5,Pin_5*%
%TO.N,unconnected-(J2-Pin_5-Pad5)*%
X145034000Y-83058000D03*
%TO.P,J2,6,Pin_6*%
%TO.N,unconnected-(J2-Pin_6-Pad6)*%
X142494000Y-83058000D03*
%TO.P,J2,7,Pin_7*%
%TO.N,unconnected-(J2-Pin_7-Pad7)*%
X139954000Y-83058000D03*
%TO.P,J2,8,Pin_8*%
%TO.N,unconnected-(J2-Pin_8-Pad8)*%
X137414000Y-83058000D03*
%TO.P,J2,9,Pin_9*%
%TO.N,unconnected-(J2-Pin_9-Pad9)*%
X134874000Y-83058000D03*
%TO.P,J2,10,Pin_10*%
%TO.N,unconnected-(J2-Pin_10-Pad10)*%
X132334000Y-83058000D03*
%TD*%
D18*
%TO.P,D1,1,K*%
%TO.N,Net-(D1-K)*%
X134863000Y-102666000D03*
%TO.P,D1,2,A*%
%TO.N,Net-(D1-A)*%
X132813000Y-102666000D03*
%TD*%
D10*
%TO.P,R3,1*%
%TO.N,Net-(U1-PROG)*%
X141712000Y-100650000D03*
%TO.P,R3,2*%
%TO.N,GND*%
X141712000Y-102650000D03*
%TD*%
D26*
%TO.P,U2,1,OD*%
%TO.N,/G1*%
X148826000Y-91156000D03*
%TO.P,U2,2,CS*%
%TO.N,/OC*%
X149776000Y-91156000D03*
%TO.P,U2,3,OC*%
%TO.N,Net-(U2-OC)*%
X150726000Y-91156000D03*
%TO.P,U2,4,TD*%
%TO.N,unconnected-(U2-TD-Pad4)*%
X150726000Y-88456000D03*
%TO.P,U2,5,VCC*%
%TO.N,Net-(U2-VCC)*%
X149776000Y-88456000D03*
%TO.P,U2,6,GND*%
%TO.N,BAT-*%
X148826000Y-88456000D03*
%TD*%
D27*
%TO.N,BAT+*%
X146771145Y-90245500D03*
X150196000Y-86856000D03*
%TO.N,GND*%
X143646000Y-98796000D03*
X139680000Y-101142000D03*
%TO.N,VIN*%
X138938000Y-88138000D03*
X141366000Y-94076000D03*
X145875502Y-94386000D03*
%TO.N,Net-(U1-~{CHRG})*%
X144285372Y-90176000D03*
X140446000Y-99076000D03*
%TO.N,/OC*%
X147425500Y-92824743D03*
X149409886Y-89835278D03*
%TO.N,Net-(U2-OC)*%
X151606000Y-92496000D03*
X150496000Y-96646000D03*
%TD*%
D28*
%TO.N,BAT+*%
X153414160Y-87934000D02*
X154686000Y-87934000D01*
X161036000Y-96192000D02*
X161036000Y-96266000D01*
X152456000Y-89263500D02*
X152456000Y-88892160D01*
X146726000Y-92376000D02*
X146346000Y-91996000D01*
X146726000Y-100313500D02*
X146726000Y-92376000D01*
X158570000Y-93726000D02*
X161036000Y-96192000D01*
X152456000Y-88892160D02*
X153414160Y-87934000D01*
X164338000Y-93726000D02*
X157938000Y-93726000D01*
X161036000Y-96266000D02*
X161290000Y-96520000D01*
X146771145Y-91570855D02*
X146771145Y-90245500D01*
X146346000Y-91996000D02*
X146771145Y-91570855D01*
X157938000Y-93726000D02*
X158570000Y-93726000D01*
X146303500Y-101296000D02*
X146303500Y-100736000D01*
X146346000Y-91996000D02*
X146151000Y-91801000D01*
X150196000Y-86856000D02*
X151626000Y-86856000D01*
X154686000Y-87934000D02*
X155174000Y-87446000D01*
X152146000Y-87376000D02*
X152146000Y-89356000D01*
X157938000Y-93726000D02*
X154686000Y-90474000D01*
X146303500Y-100736000D02*
X146726000Y-100313500D01*
X152146000Y-89356000D02*
X152456000Y-89666000D01*
X146151000Y-91801000D02*
X145681000Y-91801000D01*
X154686000Y-87934000D02*
X154686000Y-90474000D01*
X151626000Y-86856000D02*
X152146000Y-87376000D01*
D29*
%TO.N,Net-(U2-VCC)*%
X150076000Y-89476087D02*
X150255913Y-89656000D01*
X151251000Y-89656000D02*
X152456000Y-90861000D01*
X150076000Y-88756000D02*
X150076000Y-89476087D01*
X149776000Y-88456000D02*
X150076000Y-88756000D01*
X145516000Y-86008500D02*
X148218500Y-86008500D01*
X150255913Y-89656000D02*
X150876000Y-89656000D01*
X150876000Y-89656000D02*
X151251000Y-89656000D01*
X148218500Y-86008500D02*
X149776000Y-87566000D01*
X149776000Y-87566000D02*
X149776000Y-88456000D01*
%TO.N,GND*%
X144648500Y-100626000D02*
X144228500Y-101046000D01*
X156718000Y-99822000D02*
X157278040Y-99261960D01*
X149843121Y-101142000D02*
X149843121Y-101873121D01*
X145360500Y-103428000D02*
X149134000Y-103428000D01*
X141871000Y-96751000D02*
X140216000Y-96751000D01*
X131684000Y-98350000D02*
X132964000Y-98350000D01*
X142738000Y-101624000D02*
X142738000Y-100499000D01*
X144230500Y-101904000D02*
X144230500Y-102298000D01*
X139680000Y-101142000D02*
X139680000Y-98802000D01*
X164012000Y-99568000D02*
X164338000Y-99568000D01*
X152590000Y-101142000D02*
X153098000Y-100634000D01*
X157278040Y-98519000D02*
X157555040Y-98242000D01*
X144228500Y-101902000D02*
X144230500Y-101904000D01*
X142738000Y-100499000D02*
X143646000Y-99591000D01*
X154686000Y-100838000D02*
X155702000Y-99822000D01*
X162686000Y-98242000D02*
X164012000Y-99568000D01*
X157278040Y-99261960D02*
X157278040Y-98519000D01*
X139680000Y-98802000D02*
X139766000Y-98716000D01*
X153098000Y-100634000D02*
X155174000Y-100634000D01*
X144230500Y-102298000D02*
X145360500Y-103428000D01*
X140938500Y-89176000D02*
X139766000Y-90348500D01*
X139766000Y-90348500D02*
X139766000Y-92120000D01*
X143776000Y-96116000D02*
X143776000Y-94276000D01*
X141712000Y-102650000D02*
X142738000Y-101624000D01*
X150026000Y-100959121D02*
X149843121Y-101142000D01*
X155702000Y-99822000D02*
X156718000Y-99822000D01*
X144411000Y-96751000D02*
X143776000Y-96116000D01*
X144648500Y-99798500D02*
X144648500Y-100626000D01*
X132964000Y-98350000D02*
X135484000Y-95830000D01*
X144411000Y-96751000D02*
X144411000Y-98031000D01*
X131684000Y-92030000D02*
X131684000Y-89710000D01*
X135484000Y-95830000D02*
X131684000Y-92030000D01*
X149366000Y-100664879D02*
X149843121Y-101142000D01*
X141871000Y-96751000D02*
X141871000Y-96181000D01*
X150026000Y-99423000D02*
X150026000Y-100959121D01*
X157555040Y-98242000D02*
X162686000Y-98242000D01*
X141871000Y-96181000D02*
X143776000Y-94276000D01*
X139766000Y-98716000D02*
X139766000Y-92120000D01*
X149843121Y-101873121D02*
X150266000Y-102296000D01*
X149366000Y-99423000D02*
X149366000Y-100664879D01*
X143646000Y-98796000D02*
X144648500Y-99798500D01*
X144228500Y-101046000D02*
X144228500Y-101902000D01*
X140216000Y-96751000D02*
X139766000Y-97201000D01*
X149134000Y-103428000D02*
X150266000Y-102296000D01*
X149843121Y-101142000D02*
X152590000Y-101142000D01*
X143646000Y-99591000D02*
X143646000Y-98796000D01*
X164338000Y-99568000D02*
X164338000Y-106068000D01*
X144411000Y-98031000D02*
X143646000Y-98796000D01*
X139766000Y-97201000D02*
X139766000Y-98716000D01*
%TO.N,VIN*%
X139331000Y-87745000D02*
X139537000Y-87745000D01*
X141871000Y-91801000D02*
X141871000Y-89378500D01*
X145875502Y-94386000D02*
X145875502Y-96556498D01*
X142073500Y-88623500D02*
X142073500Y-89176000D01*
X141871000Y-89378500D02*
X142073500Y-89176000D01*
X138648000Y-86856000D02*
X138648000Y-86156000D01*
X139537000Y-87745000D02*
X138648000Y-86856000D01*
X138938000Y-88138000D02*
X139331000Y-87745000D01*
X142553500Y-88796000D02*
X141502500Y-87745000D01*
X141502500Y-87745000D02*
X139537000Y-87745000D01*
X141871000Y-91801000D02*
X141871000Y-93571000D01*
X145875502Y-96556498D02*
X145681000Y-96751000D01*
X141871000Y-93571000D02*
X141366000Y-94076000D01*
%TO.N,Net-(D1-A)*%
X138163000Y-88459016D02*
X139088000Y-89384016D01*
X139088000Y-100294000D02*
X138240000Y-101142000D01*
X138163000Y-87671000D02*
X138163000Y-88459016D01*
X132813000Y-86156000D02*
X133839000Y-87182000D01*
X135622000Y-87182000D02*
X136648000Y-86156000D01*
X132908000Y-102920000D02*
X132813000Y-102920000D01*
X138240000Y-101142000D02*
X132568000Y-101142000D01*
X136648000Y-86156000D02*
X138163000Y-87671000D01*
X133839000Y-87182000D02*
X135622000Y-87182000D01*
X139088000Y-89384016D02*
X139088000Y-100294000D01*
X132568000Y-102580000D02*
X132908000Y-102920000D01*
X132568000Y-101142000D02*
X132568000Y-102580000D01*
%TO.N,Net-(D1-K)*%
X134863000Y-102920000D02*
X136124000Y-102920000D01*
X136378000Y-102666000D02*
X137156000Y-102666000D01*
X136124000Y-102920000D02*
X136378000Y-102666000D01*
%TO.N,Net-(D2-K)*%
X139800000Y-85130000D02*
X135889000Y-85130000D01*
X140516000Y-85846000D02*
X139800000Y-85130000D01*
X140516000Y-86546000D02*
X140516000Y-85846000D01*
X135889000Y-85130000D02*
X134863000Y-86156000D01*
D28*
%TO.N,BAT-*%
X154686000Y-98094000D02*
X157102000Y-98094000D01*
X153650000Y-98094000D02*
X155174000Y-98094000D01*
X147736000Y-92016000D02*
X148125500Y-92405500D01*
X153256000Y-97700000D02*
X153650000Y-98094000D01*
X150181000Y-95381000D02*
X150026000Y-95226000D01*
X147736000Y-89546000D02*
X147736000Y-92016000D01*
X150100000Y-95300000D02*
X150181000Y-95381000D01*
X145516000Y-88646000D02*
X145516000Y-88083500D01*
X148125500Y-92405500D02*
X148125500Y-95000500D01*
X148125500Y-95000500D02*
X148425000Y-95300000D01*
X150181000Y-95381000D02*
X150196000Y-95396000D01*
X154686000Y-98094000D02*
X154686000Y-98044000D01*
X154686000Y-97595100D02*
X154686000Y-98094000D01*
X146416000Y-89546000D02*
X145516000Y-88646000D01*
X149366000Y-94009000D02*
X149366000Y-94566000D01*
X146416000Y-89546000D02*
X147736000Y-89546000D01*
X149366000Y-94566000D02*
X150026000Y-95226000D01*
X150026000Y-95226000D02*
X150026000Y-94009000D01*
X158676000Y-96520000D02*
X159290000Y-96520000D01*
X147736000Y-89546000D02*
X148826000Y-88456000D01*
X150196000Y-95396000D02*
X151460000Y-95396000D01*
X151460000Y-95396000D02*
X153256000Y-97192000D01*
X157102000Y-98094000D02*
X158676000Y-96520000D01*
X148425000Y-95300000D02*
X150100000Y-95300000D01*
X153256000Y-97192000D02*
X153256000Y-97700000D01*
D29*
%TO.N,Net-(U1-~{CHRG})*%
X140442000Y-101650000D02*
X140442000Y-99080000D01*
X143141000Y-91801000D02*
X143440999Y-91501001D01*
X140446000Y-99106000D02*
X140446000Y-99076000D01*
X140442000Y-99080000D02*
X140446000Y-99076000D01*
X139156000Y-102666000D02*
X139426000Y-102666000D01*
X143440999Y-91501001D02*
X143440999Y-91020373D01*
X143440999Y-91020373D02*
X144285372Y-90176000D01*
X139426000Y-102666000D02*
X140442000Y-101650000D01*
%TO.N,/OC*%
X149776000Y-90206000D02*
X149776000Y-91156000D01*
X147636000Y-93056000D02*
X147404743Y-92824743D01*
X147636000Y-100129879D02*
X147636000Y-93056000D01*
X149409886Y-89839886D02*
X149776000Y-90206000D01*
X149409886Y-89835278D02*
X149409886Y-89839886D01*
X148245621Y-102046000D02*
X148245621Y-100739500D01*
X147404743Y-92824743D02*
X147425500Y-92824743D01*
X149409886Y-89835278D02*
X149409886Y-90051000D01*
X148245621Y-100739500D02*
X147636000Y-100129879D01*
%TO.N,/G1*%
X148826000Y-93899000D02*
X148716000Y-94009000D01*
X148826000Y-91156000D02*
X148826000Y-93899000D01*
%TO.N,Net-(U1-~{STDBY})*%
X145060372Y-89590372D02*
X145060372Y-90497016D01*
X145060372Y-90497016D02*
X144411000Y-91146388D01*
X144411000Y-91146388D02*
X144411000Y-91801000D01*
X142516000Y-87046000D02*
X145060372Y-89590372D01*
%TO.N,Net-(U1-PROG)*%
X143141000Y-98271000D02*
X141712000Y-99700000D01*
X143141000Y-96751000D02*
X143141000Y-98271000D01*
X141712000Y-99700000D02*
X141712000Y-100650000D01*
%TO.N,Net-(U2-OC)*%
X148716000Y-99423000D02*
X148716000Y-98426000D01*
X151606000Y-92036000D02*
X150726000Y-91156000D01*
X148716000Y-98426000D02*
X150496000Y-96646000D01*
X151606000Y-92496000D02*
X151606000Y-92036000D01*
%TO.N,Net-(J2-Pin_1)*%
X156464000Y-89408000D02*
X156972000Y-89408000D01*
X158750000Y-91186000D02*
X164338000Y-91186000D01*
X155194000Y-83058000D02*
X156464000Y-84328000D01*
X156464000Y-84328000D02*
X156464000Y-89408000D01*
X156972000Y-89408000D02*
X158750000Y-91186000D01*
%TO.N,Net-(J3-Pin_7)*%
X159838000Y-99568000D02*
X159838000Y-106068000D01*
X158440000Y-104742000D02*
X159512000Y-105814000D01*
X139954000Y-105918000D02*
X141130000Y-104742000D01*
X159512000Y-105814000D02*
X159584000Y-105814000D01*
X159584000Y-105814000D02*
X159838000Y-106068000D01*
X141130000Y-104742000D02*
X158440000Y-104742000D01*
%TD*%
M02*
