%TF.GenerationSoftware,KiCad,Pcbnew,9.0.6-rc1*%
%TF.CreationDate,2025-12-07T23:50:49+09:00*%
%TF.ProjectId,tp4056,74703430-3536-42e6-9b69-6361645f7063,rev?*%
%TF.SameCoordinates,Original*%
%TF.FileFunction,Copper,L2,Bot*%
%TF.FilePolarity,Positive*%
%FSLAX46Y46*%
G04 Gerber Fmt 4.6, Leading zero omitted, Abs format (unit mm)*
G04 Created by KiCad (PCBNEW 9.0.6-rc1) date 2025-12-07 23:50:49*
%MOMM*%
%LPD*%
G01*
G04 APERTURE LIST*
G04 Aperture macros list*
%AMRoundRect*
0 Rectangle with rounded corners*
0 $1 Rounding radius*
0 $2 $3 $4 $5 $6 $7 $8 $9 X,Y pos of 4 corners*
0 Add a 4 corners polygon primitive as box body*
4,1,4,$2,$3,$4,$5,$6,$7,$8,$9,$2,$3,0*
0 Add four circle primitives for the rounded corners*
1,1,$1+$1,$2,$3*
1,1,$1+$1,$4,$5*
1,1,$1+$1,$6,$7*
1,1,$1+$1,$8,$9*
0 Add four rect primitives between the rounded corners*
20,1,$1+$1,$2,$3,$4,$5,0*
20,1,$1+$1,$4,$5,$6,$7,0*
20,1,$1+$1,$6,$7,$8,$9,0*
20,1,$1+$1,$8,$9,$2,$3,0*%
G04 Aperture macros list end*
%ADD10C,0.100000*%
%TA.AperFunction,NonConductor*%
%ADD11C,0.100000*%
%TD*%
%TA.AperFunction,ComponentPad*%
%ADD12C,2.000000*%
%TD*%
%TA.AperFunction,ComponentPad*%
%ADD13R,1.700000X1.700000*%
%TD*%
%TA.AperFunction,ComponentPad*%
%ADD14C,1.700000*%
%TD*%
%TA.AperFunction,ComponentPad*%
%ADD15RoundRect,0.250000X0.350000X0.625000X-0.350000X0.625000X-0.350000X-0.625000X0.350000X-0.625000X0*%
%TD*%
%TA.AperFunction,ComponentPad*%
%ADD16O,1.200000X1.750000*%
%TD*%
%TA.AperFunction,ComponentPad*%
%ADD17O,1.800000X1.800000*%
%TD*%
%TA.AperFunction,ComponentPad*%
%ADD18O,2.000000X1.300000*%
%TD*%
%TA.AperFunction,ViaPad*%
%ADD19C,0.800000*%
%TD*%
%TA.AperFunction,Conductor*%
%ADD20C,0.200000*%
%TD*%
%TA.AperFunction,Conductor*%
%ADD21C,0.250000*%
%TD*%
G04 APERTURE END LIST*
D10*
D11*
X148702020Y-103757561D02*
X148397258Y-103757561D01*
X148587734Y-103490895D02*
X148587734Y-104176609D01*
X148587734Y-104176609D02*
X148549639Y-104252800D01*
X148549639Y-104252800D02*
X148473449Y-104290895D01*
X148473449Y-104290895D02*
X148397258Y-104290895D01*
X147787734Y-103757561D02*
X147787734Y-104290895D01*
X148130591Y-103757561D02*
X148130591Y-104176609D01*
X148130591Y-104176609D02*
X148092496Y-104252800D01*
X148092496Y-104252800D02*
X148016306Y-104290895D01*
X148016306Y-104290895D02*
X147902020Y-104290895D01*
X147902020Y-104290895D02*
X147825829Y-104252800D01*
X147825829Y-104252800D02*
X147787734Y-104214704D01*
X147406781Y-104290895D02*
X147406781Y-103757561D01*
X147406781Y-103909942D02*
X147368686Y-103833752D01*
X147368686Y-103833752D02*
X147330591Y-103795657D01*
X147330591Y-103795657D02*
X147254400Y-103757561D01*
X147254400Y-103757561D02*
X147178210Y-103757561D01*
X146911543Y-103757561D02*
X146911543Y-104290895D01*
X146911543Y-103833752D02*
X146873448Y-103795657D01*
X146873448Y-103795657D02*
X146797258Y-103757561D01*
X146797258Y-103757561D02*
X146682972Y-103757561D01*
X146682972Y-103757561D02*
X146606781Y-103795657D01*
X146606781Y-103795657D02*
X146568686Y-103871847D01*
X146568686Y-103871847D02*
X146568686Y-104290895D01*
X146187733Y-104290895D02*
X146187733Y-103757561D01*
X146187733Y-103490895D02*
X146225829Y-103528990D01*
X146225829Y-103528990D02*
X146187733Y-103567085D01*
X146187733Y-103567085D02*
X146149638Y-103528990D01*
X146149638Y-103528990D02*
X146187733Y-103490895D01*
X146187733Y-103490895D02*
X146187733Y-103567085D01*
X145502019Y-104252800D02*
X145578210Y-104290895D01*
X145578210Y-104290895D02*
X145730591Y-104290895D01*
X145730591Y-104290895D02*
X145806781Y-104252800D01*
X145806781Y-104252800D02*
X145844877Y-104176609D01*
X145844877Y-104176609D02*
X145844877Y-103871847D01*
X145844877Y-103871847D02*
X145806781Y-103795657D01*
X145806781Y-103795657D02*
X145730591Y-103757561D01*
X145730591Y-103757561D02*
X145578210Y-103757561D01*
X145578210Y-103757561D02*
X145502019Y-103795657D01*
X145502019Y-103795657D02*
X145463924Y-103871847D01*
X145463924Y-103871847D02*
X145463924Y-103948038D01*
X145463924Y-103948038D02*
X145844877Y-104024228D01*
X143863924Y-103681371D02*
X143940115Y-103643276D01*
X143940115Y-103643276D02*
X144092496Y-103643276D01*
X144092496Y-103643276D02*
X144168686Y-103681371D01*
X144168686Y-103681371D02*
X144244877Y-103757561D01*
X144244877Y-103757561D02*
X144282972Y-103833752D01*
X144282972Y-103833752D02*
X144282972Y-103986133D01*
X144282972Y-103986133D02*
X144244877Y-104062323D01*
X144244877Y-104062323D02*
X144168686Y-104138514D01*
X144168686Y-104138514D02*
X144092496Y-104176609D01*
X144092496Y-104176609D02*
X143940115Y-104176609D01*
X143940115Y-104176609D02*
X143863924Y-104138514D01*
X144016305Y-103376609D02*
X144206781Y-103414704D01*
X144206781Y-103414704D02*
X144397258Y-103528990D01*
X144397258Y-103528990D02*
X144511543Y-103719466D01*
X144511543Y-103719466D02*
X144549639Y-103909942D01*
X144549639Y-103909942D02*
X144511543Y-104100419D01*
X144511543Y-104100419D02*
X144397258Y-104290895D01*
X144397258Y-104290895D02*
X144206781Y-104405180D01*
X144206781Y-104405180D02*
X144016305Y-104443276D01*
X144016305Y-104443276D02*
X143825829Y-104405180D01*
X143825829Y-104405180D02*
X143635353Y-104290895D01*
X143635353Y-104290895D02*
X143521067Y-104100419D01*
X143521067Y-104100419D02*
X143482972Y-103909942D01*
X143482972Y-103909942D02*
X143521067Y-103719466D01*
X143521067Y-103719466D02*
X143635353Y-103528990D01*
X143635353Y-103528990D02*
X143825829Y-103414704D01*
X143825829Y-103414704D02*
X144016305Y-103376609D01*
X142568686Y-104062323D02*
X142187733Y-104062323D01*
X142644876Y-104290895D02*
X142378209Y-103490895D01*
X142378209Y-103490895D02*
X142111543Y-104290895D01*
X141730591Y-104290895D02*
X141806781Y-104252800D01*
X141806781Y-104252800D02*
X141844876Y-104176609D01*
X141844876Y-104176609D02*
X141844876Y-103490895D01*
X141311543Y-104290895D02*
X141387733Y-104252800D01*
X141387733Y-104252800D02*
X141425828Y-104176609D01*
X141425828Y-104176609D02*
X141425828Y-103490895D01*
X140397256Y-104290895D02*
X140397256Y-103757561D01*
X140397256Y-103909942D02*
X140359161Y-103833752D01*
X140359161Y-103833752D02*
X140321066Y-103795657D01*
X140321066Y-103795657D02*
X140244875Y-103757561D01*
X140244875Y-103757561D02*
X140168685Y-103757561D01*
X139902018Y-104290895D02*
X139902018Y-103757561D01*
X139902018Y-103490895D02*
X139940114Y-103528990D01*
X139940114Y-103528990D02*
X139902018Y-103567085D01*
X139902018Y-103567085D02*
X139863923Y-103528990D01*
X139863923Y-103528990D02*
X139902018Y-103490895D01*
X139902018Y-103490895D02*
X139902018Y-103567085D01*
X139178209Y-103757561D02*
X139178209Y-104405180D01*
X139178209Y-104405180D02*
X139216304Y-104481371D01*
X139216304Y-104481371D02*
X139254400Y-104519466D01*
X139254400Y-104519466D02*
X139330590Y-104557561D01*
X139330590Y-104557561D02*
X139444876Y-104557561D01*
X139444876Y-104557561D02*
X139521066Y-104519466D01*
X139178209Y-104252800D02*
X139254400Y-104290895D01*
X139254400Y-104290895D02*
X139406781Y-104290895D01*
X139406781Y-104290895D02*
X139482971Y-104252800D01*
X139482971Y-104252800D02*
X139521066Y-104214704D01*
X139521066Y-104214704D02*
X139559162Y-104138514D01*
X139559162Y-104138514D02*
X139559162Y-103909942D01*
X139559162Y-103909942D02*
X139521066Y-103833752D01*
X139521066Y-103833752D02*
X139482971Y-103795657D01*
X139482971Y-103795657D02*
X139406781Y-103757561D01*
X139406781Y-103757561D02*
X139254400Y-103757561D01*
X139254400Y-103757561D02*
X139178209Y-103795657D01*
X138797256Y-104290895D02*
X138797256Y-103490895D01*
X138454399Y-104290895D02*
X138454399Y-103871847D01*
X138454399Y-103871847D02*
X138492494Y-103795657D01*
X138492494Y-103795657D02*
X138568685Y-103757561D01*
X138568685Y-103757561D02*
X138682971Y-103757561D01*
X138682971Y-103757561D02*
X138759161Y-103795657D01*
X138759161Y-103795657D02*
X138797256Y-103833752D01*
X138187732Y-103757561D02*
X137882970Y-103757561D01*
X138073446Y-103490895D02*
X138073446Y-104176609D01*
X138073446Y-104176609D02*
X138035351Y-104252800D01*
X138035351Y-104252800D02*
X137959161Y-104290895D01*
X137959161Y-104290895D02*
X137882970Y-104290895D01*
X137654399Y-104252800D02*
X137578208Y-104290895D01*
X137578208Y-104290895D02*
X137425827Y-104290895D01*
X137425827Y-104290895D02*
X137349637Y-104252800D01*
X137349637Y-104252800D02*
X137311541Y-104176609D01*
X137311541Y-104176609D02*
X137311541Y-104138514D01*
X137311541Y-104138514D02*
X137349637Y-104062323D01*
X137349637Y-104062323D02*
X137425827Y-104024228D01*
X137425827Y-104024228D02*
X137540113Y-104024228D01*
X137540113Y-104024228D02*
X137616303Y-103986133D01*
X137616303Y-103986133D02*
X137654399Y-103909942D01*
X137654399Y-103909942D02*
X137654399Y-103871847D01*
X137654399Y-103871847D02*
X137616303Y-103795657D01*
X137616303Y-103795657D02*
X137540113Y-103757561D01*
X137540113Y-103757561D02*
X137425827Y-103757561D01*
X137425827Y-103757561D02*
X137349637Y-103795657D01*
X136359160Y-104290895D02*
X136359160Y-103757561D01*
X136359160Y-103909942D02*
X136321065Y-103833752D01*
X136321065Y-103833752D02*
X136282970Y-103795657D01*
X136282970Y-103795657D02*
X136206779Y-103757561D01*
X136206779Y-103757561D02*
X136130589Y-103757561D01*
X135559160Y-104252800D02*
X135635351Y-104290895D01*
X135635351Y-104290895D02*
X135787732Y-104290895D01*
X135787732Y-104290895D02*
X135863922Y-104252800D01*
X135863922Y-104252800D02*
X135902018Y-104176609D01*
X135902018Y-104176609D02*
X135902018Y-103871847D01*
X135902018Y-103871847D02*
X135863922Y-103795657D01*
X135863922Y-103795657D02*
X135787732Y-103757561D01*
X135787732Y-103757561D02*
X135635351Y-103757561D01*
X135635351Y-103757561D02*
X135559160Y-103795657D01*
X135559160Y-103795657D02*
X135521065Y-103871847D01*
X135521065Y-103871847D02*
X135521065Y-103948038D01*
X135521065Y-103948038D02*
X135902018Y-104024228D01*
X135216304Y-104252800D02*
X135140113Y-104290895D01*
X135140113Y-104290895D02*
X134987732Y-104290895D01*
X134987732Y-104290895D02*
X134911542Y-104252800D01*
X134911542Y-104252800D02*
X134873446Y-104176609D01*
X134873446Y-104176609D02*
X134873446Y-104138514D01*
X134873446Y-104138514D02*
X134911542Y-104062323D01*
X134911542Y-104062323D02*
X134987732Y-104024228D01*
X134987732Y-104024228D02*
X135102018Y-104024228D01*
X135102018Y-104024228D02*
X135178208Y-103986133D01*
X135178208Y-103986133D02*
X135216304Y-103909942D01*
X135216304Y-103909942D02*
X135216304Y-103871847D01*
X135216304Y-103871847D02*
X135178208Y-103795657D01*
X135178208Y-103795657D02*
X135102018Y-103757561D01*
X135102018Y-103757561D02*
X134987732Y-103757561D01*
X134987732Y-103757561D02*
X134911542Y-103795657D01*
X134225827Y-104252800D02*
X134302018Y-104290895D01*
X134302018Y-104290895D02*
X134454399Y-104290895D01*
X134454399Y-104290895D02*
X134530589Y-104252800D01*
X134530589Y-104252800D02*
X134568685Y-104176609D01*
X134568685Y-104176609D02*
X134568685Y-103871847D01*
X134568685Y-103871847D02*
X134530589Y-103795657D01*
X134530589Y-103795657D02*
X134454399Y-103757561D01*
X134454399Y-103757561D02*
X134302018Y-103757561D01*
X134302018Y-103757561D02*
X134225827Y-103795657D01*
X134225827Y-103795657D02*
X134187732Y-103871847D01*
X134187732Y-103871847D02*
X134187732Y-103948038D01*
X134187732Y-103948038D02*
X134568685Y-104024228D01*
X133844875Y-104290895D02*
X133844875Y-103757561D01*
X133844875Y-103909942D02*
X133806780Y-103833752D01*
X133806780Y-103833752D02*
X133768685Y-103795657D01*
X133768685Y-103795657D02*
X133692494Y-103757561D01*
X133692494Y-103757561D02*
X133616304Y-103757561D01*
X133425828Y-103757561D02*
X133235352Y-104290895D01*
X133235352Y-104290895D02*
X133044875Y-103757561D01*
X132435351Y-104252800D02*
X132511542Y-104290895D01*
X132511542Y-104290895D02*
X132663923Y-104290895D01*
X132663923Y-104290895D02*
X132740113Y-104252800D01*
X132740113Y-104252800D02*
X132778209Y-104176609D01*
X132778209Y-104176609D02*
X132778209Y-103871847D01*
X132778209Y-103871847D02*
X132740113Y-103795657D01*
X132740113Y-103795657D02*
X132663923Y-103757561D01*
X132663923Y-103757561D02*
X132511542Y-103757561D01*
X132511542Y-103757561D02*
X132435351Y-103795657D01*
X132435351Y-103795657D02*
X132397256Y-103871847D01*
X132397256Y-103871847D02*
X132397256Y-103948038D01*
X132397256Y-103948038D02*
X132778209Y-104024228D01*
X131711542Y-104290895D02*
X131711542Y-103490895D01*
X131711542Y-104252800D02*
X131787733Y-104290895D01*
X131787733Y-104290895D02*
X131940114Y-104290895D01*
X131940114Y-104290895D02*
X132016304Y-104252800D01*
X132016304Y-104252800D02*
X132054399Y-104214704D01*
X132054399Y-104214704D02*
X132092495Y-104138514D01*
X132092495Y-104138514D02*
X132092495Y-103909942D01*
X132092495Y-103909942D02*
X132054399Y-103833752D01*
X132054399Y-103833752D02*
X132016304Y-103795657D01*
X132016304Y-103795657D02*
X131940114Y-103757561D01*
X131940114Y-103757561D02*
X131787733Y-103757561D01*
X131787733Y-103757561D02*
X131711542Y-103795657D01*
X131330589Y-104214704D02*
X131292494Y-104252800D01*
X131292494Y-104252800D02*
X131330589Y-104290895D01*
X131330589Y-104290895D02*
X131368685Y-104252800D01*
X131368685Y-104252800D02*
X131330589Y-104214704D01*
X131330589Y-104214704D02*
X131330589Y-104290895D01*
D12*
%TO.P,SW1,1,1*%
%TO.N,GND*%
X164338000Y-99568000D03*
X164338000Y-106068000D03*
%TO.P,SW1,2,2*%
%TO.N,Net-(J3-Pin_7)*%
X159838000Y-99568000D03*
X159838000Y-106068000D03*
%TD*%
D13*
%TO.P,J6,1,Pin_1*%
%TO.N,BAT-*%
X154686000Y-98094000D03*
D14*
%TO.P,J6,2,Pin_2*%
%TO.N,GND*%
X154686000Y-100634000D03*
%TD*%
D13*
%TO.P,J8,1,Pin_1*%
%TO.N,BAT+*%
X154686000Y-87934000D03*
D14*
%TO.P,J8,2,Pin_2*%
X154686000Y-90474000D03*
%TD*%
D13*
%TO.P,J3,1,Pin_1*%
%TO.N,unconnected-(J3-Pin_1-Pad1)*%
X155194000Y-105918000D03*
D14*
%TO.P,J3,2,Pin_2*%
%TO.N,unconnected-(J3-Pin_2-Pad2)*%
X152654000Y-105918000D03*
%TO.P,J3,3,Pin_3*%
%TO.N,unconnected-(J3-Pin_3-Pad3)*%
X150114000Y-105918000D03*
%TO.P,J3,4,Pin_4*%
%TO.N,unconnected-(J3-Pin_4-Pad4)*%
X147574000Y-105918000D03*
%TO.P,J3,5,Pin_5*%
%TO.N,unconnected-(J3-Pin_5-Pad5)*%
X145034000Y-105918000D03*
%TO.P,J3,6,Pin_6*%
%TO.N,unconnected-(J3-Pin_6-Pad6)*%
X142494000Y-105918000D03*
%TO.P,J3,7,Pin_7*%
%TO.N,Net-(J3-Pin_7)*%
X139954000Y-105918000D03*
%TO.P,J3,8,Pin_8*%
%TO.N,unconnected-(J3-Pin_8-Pad8)*%
X137414000Y-105918000D03*
%TO.P,J3,9,Pin_9*%
%TO.N,unconnected-(J3-Pin_9-Pad9)*%
X134874000Y-105918000D03*
%TO.P,J3,10,Pin_10*%
%TO.N,unconnected-(J3-Pin_10-Pad10)*%
X132334000Y-105918000D03*
%TD*%
D13*
%TO.P,SW2,1,A*%
%TO.N,Net-(J2-Pin_1)*%
X164592000Y-91440000D03*
D14*
%TO.P,SW2,2,B*%
%TO.N,BAT+*%
X164592000Y-93980000D03*
%TO.P,SW2,3,C*%
%TO.N,unconnected-(SW2-C-Pad3)*%
X164592000Y-96520000D03*
%TD*%
D15*
%TO.P,J4,1,Pin_1*%
%TO.N,BAT+*%
X161290000Y-96520000D03*
D16*
%TO.P,J4,2,Pin_2*%
%TO.N,BAT-*%
X159290000Y-96520000D03*
%TD*%
D17*
%TO.P,J1,1,VBUS*%
%TO.N,VIN*%
X135484000Y-92230000D03*
%TO.P,J1,2,GND*%
%TO.N,GND*%
X135484000Y-95830000D03*
D18*
%TO.P,J1,3,SHIELD*%
X131684000Y-89710000D03*
X131684000Y-98350000D03*
%TD*%
D13*
%TO.P,J2,1,Pin_1*%
%TO.N,Net-(J2-Pin_1)*%
X155194000Y-83058000D03*
D14*
%TO.P,J2,2,Pin_2*%
%TO.N,GND*%
X152654000Y-83058000D03*
%TO.P,J2,3,Pin_3*%
%TO.N,unconnected-(J2-Pin_3-Pad3)*%
X150114000Y-83058000D03*
%TO.P,J2,4,Pin_4*%
%TO.N,unconnected-(J2-Pin_4-Pad4)*%
X147574000Y-83058000D03*
%TO.P,J2,5,Pin_5*%
%TO.N,unconnected-(J2-Pin_5-Pad5)*%
X145034000Y-83058000D03*
%TO.P,J2,6,Pin_6*%
%TO.N,unconnected-(J2-Pin_6-Pad6)*%
X142494000Y-83058000D03*
%TO.P,J2,7,Pin_7*%
%TO.N,unconnected-(J2-Pin_7-Pad7)*%
X139954000Y-83058000D03*
%TO.P,J2,8,Pin_8*%
%TO.N,unconnected-(J2-Pin_8-Pad8)*%
X137414000Y-83058000D03*
%TO.P,J2,9,Pin_9*%
%TO.N,unconnected-(J2-Pin_9-Pad9)*%
X134874000Y-83058000D03*
%TO.P,J2,10,Pin_10*%
%TO.N,unconnected-(J2-Pin_10-Pad10)*%
X132334000Y-83058000D03*
%TD*%
D19*
%TO.N,BAT+*%
X146771145Y-90245500D03*
X150196000Y-86856000D03*
%TO.N,GND*%
X143646000Y-98796000D03*
X139680000Y-101142000D03*
%TO.N,VIN*%
X138938000Y-88138000D03*
X141366000Y-94076000D03*
X145875502Y-94386000D03*
%TO.N,Net-(U1-~{CHRG})*%
X144285372Y-90176000D03*
X140446000Y-99076000D03*
%TO.N,/OC*%
X147425500Y-92824743D03*
X149409886Y-89835278D03*
%TO.N,Net-(U2-OC)*%
X151606000Y-92496000D03*
X150496000Y-96646000D03*
%TD*%
D20*
%TO.N,BAT+*%
X148226000Y-86766000D02*
X150106000Y-86766000D01*
X150106000Y-86766000D02*
X150196000Y-86856000D01*
X146771145Y-90245500D02*
X146771145Y-88220855D01*
X146771145Y-88220855D02*
X148226000Y-86766000D01*
D21*
%TO.N,GND*%
X135108000Y-97926170D02*
X135108000Y-97222000D01*
X138323830Y-101142000D02*
X135108000Y-97926170D01*
X155174000Y-100634000D02*
X154108000Y-99568000D01*
X152400000Y-98806000D02*
X152400000Y-83312000D01*
X152400000Y-83312000D02*
X152654000Y-83058000D01*
X135108000Y-97222000D02*
X135484000Y-96846000D01*
X139680000Y-101142000D02*
X138323830Y-101142000D01*
X135484000Y-96846000D02*
X135484000Y-95830000D01*
X153162000Y-99568000D02*
X152400000Y-98806000D01*
X154108000Y-99568000D02*
X153162000Y-99568000D01*
%TO.N,VIN*%
X135484000Y-92230000D02*
X135108000Y-91854000D01*
X138938000Y-88776000D02*
X138938000Y-88138000D01*
X135484000Y-92230000D02*
X138938000Y-88776000D01*
X141366000Y-94076000D02*
X141676000Y-94386000D01*
X141676000Y-94386000D02*
X145875502Y-94386000D01*
%TO.N,Net-(U1-~{CHRG})*%
X143765372Y-89656000D02*
X144285372Y-90176000D01*
X142656000Y-88796000D02*
X143516000Y-89656000D01*
X140446000Y-92673206D02*
X142246000Y-90873206D01*
X143516000Y-89656000D02*
X143765372Y-89656000D01*
X142246000Y-89206000D02*
X142656000Y-88796000D01*
X142246000Y-90873206D02*
X142246000Y-89206000D01*
X140446000Y-99076000D02*
X140446000Y-92673206D01*
%TO.N,/OC*%
X148256000Y-89806000D02*
X148246000Y-89816000D01*
X148246000Y-89816000D02*
X149390608Y-89816000D01*
X147425500Y-92824743D02*
X147425500Y-90636500D01*
X149390608Y-89816000D02*
X149409886Y-89835278D01*
X147425500Y-90636500D02*
X148256000Y-89806000D01*
%TO.N,Net-(U2-OC)*%
X150496000Y-96646000D02*
X151606000Y-95536000D01*
X151606000Y-95536000D02*
X151606000Y-92496000D01*
%TD*%
M02*
