%TF.GenerationSoftware,KiCad,Pcbnew,9.0.6-rc1*%
%TF.CreationDate,2025-12-07T23:50:49+09:00*%
%TF.ProjectId,tp4056,74703430-3536-42e6-9b69-6361645f7063,rev?*%
%TF.SameCoordinates,Original*%
%TF.FileFunction,Soldermask,Top*%
%TF.FilePolarity,Negative*%
%FSLAX46Y46*%
G04 Gerber Fmt 4.6, Leading zero omitted, Abs format (unit mm)*
G04 Created by KiCad (PCBNEW 9.0.6-rc1) date 2025-12-07 23:50:49*
%MOMM*%
%LPD*%
G01*
G04 APERTURE LIST*
G04 Aperture macros list*
%AMRoundRect*
0 Rectangle with rounded corners*
0 $1 Rounding radius*
0 $2 $3 $4 $5 $6 $7 $8 $9 X,Y pos of 4 corners*
0 Add a 4 corners polygon primitive as box body*
4,1,4,$2,$3,$4,$5,$6,$7,$8,$9,$2,$3,0*
0 Add four circle primitives for the rounded corners*
1,1,$1+$1,$2,$3*
1,1,$1+$1,$4,$5*
1,1,$1+$1,$6,$7*
1,1,$1+$1,$8,$9*
0 Add four rect primitives between the rounded corners*
20,1,$1+$1,$2,$3,$4,$5,0*
20,1,$1+$1,$4,$5,$6,$7,0*
20,1,$1+$1,$6,$7,$8,$9,0*
20,1,$1+$1,$8,$9,$2,$3,0*%
G04 Aperture macros list end*
%ADD10RoundRect,0.250000X-0.450000X0.350000X-0.450000X-0.350000X0.450000X-0.350000X0.450000X0.350000X0*%
%ADD11RoundRect,0.150000X0.150000X-0.825000X0.150000X0.825000X-0.150000X0.825000X-0.150000X-0.825000X0*%
%ADD12R,3.000000X2.290000*%
%ADD13RoundRect,0.250000X-0.350000X-0.450000X0.350000X-0.450000X0.350000X0.450000X-0.350000X0.450000X0*%
%ADD14C,2.000000*%
%ADD15R,1.700000X1.700000*%
%ADD16C,1.700000*%
%ADD17RoundRect,0.250000X-0.475000X0.337500X-0.475000X-0.337500X0.475000X-0.337500X0.475000X0.337500X0*%
%ADD18RoundRect,0.250000X0.325000X0.450000X-0.325000X0.450000X-0.325000X-0.450000X0.325000X-0.450000X0*%
%ADD19R,0.400000X1.560000*%
%ADD20RoundRect,0.250000X0.337500X0.475000X-0.337500X0.475000X-0.337500X-0.475000X0.337500X-0.475000X0*%
%ADD21RoundRect,0.250000X0.350000X0.625000X-0.350000X0.625000X-0.350000X-0.625000X0.350000X-0.625000X0*%
%ADD22O,1.200000X1.750000*%
%ADD23O,1.800000X1.800000*%
%ADD24O,2.000000X1.300000*%
%ADD25RoundRect,0.250000X0.350000X0.450000X-0.350000X0.450000X-0.350000X-0.450000X0.350000X-0.450000X0*%
%ADD26R,0.650000X1.560000*%
G04 APERTURE END LIST*
D10*
%TO.C,R5*%
X152654000Y-89154000D03*
X152654000Y-91154000D03*
%TD*%
D11*
%TO.C,U1*%
X141871000Y-96751000D03*
X143141000Y-96751000D03*
X144411000Y-96751000D03*
X145681000Y-96751000D03*
X145681000Y-91801000D03*
X144411000Y-91801000D03*
X143141000Y-91801000D03*
X141871000Y-91801000D03*
D12*
X143776000Y-94276000D03*
%TD*%
D13*
%TO.C,R2*%
X140516000Y-86546000D03*
X142516000Y-86546000D03*
%TD*%
D14*
%TO.C,SW1*%
X164338000Y-99568000D03*
X164338000Y-106068000D03*
X159838000Y-99568000D03*
X159838000Y-106068000D03*
%TD*%
D15*
%TO.C,J6*%
X154686000Y-98094000D03*
D16*
X154686000Y-100634000D03*
%TD*%
D17*
%TO.C,C2*%
X145516000Y-86008500D03*
X145516000Y-88083500D03*
%TD*%
D15*
%TO.C,J8*%
X154686000Y-87934000D03*
D16*
X154686000Y-90474000D03*
%TD*%
D15*
%TO.C,J3*%
X155194000Y-105918000D03*
D16*
X152654000Y-105918000D03*
X150114000Y-105918000D03*
X147574000Y-105918000D03*
X145034000Y-105918000D03*
X142494000Y-105918000D03*
X139954000Y-105918000D03*
X137414000Y-105918000D03*
X134874000Y-105918000D03*
X132334000Y-105918000D03*
%TD*%
D18*
%TO.C,D2*%
X134863000Y-86156000D03*
X132813000Y-86156000D03*
%TD*%
D19*
%TO.C,U4*%
X150676000Y-94009000D03*
X150026000Y-94009000D03*
X149366000Y-94009000D03*
X148716000Y-94009000D03*
X148716000Y-99423000D03*
X149366000Y-99423000D03*
X150026000Y-99423000D03*
X150676000Y-99423000D03*
%TD*%
D15*
%TO.C,SW2*%
X164592000Y-91440000D03*
D16*
X164592000Y-93980000D03*
X164592000Y-96520000D03*
%TD*%
D20*
%TO.C,C1*%
X146305500Y-101904000D03*
X144230500Y-101904000D03*
%TD*%
D21*
%TO.C,J4*%
X161290000Y-96520000D03*
D22*
X159290000Y-96520000D03*
%TD*%
D13*
%TO.C,R1*%
X137156000Y-102666000D03*
X139156000Y-102666000D03*
%TD*%
D23*
%TO.C,J1*%
X135484000Y-92230000D03*
X135484000Y-95830000D03*
D24*
X131684000Y-89710000D03*
X131684000Y-98350000D03*
%TD*%
D13*
%TO.C,R6*%
X148266000Y-102296000D03*
X150266000Y-102296000D03*
%TD*%
D20*
%TO.C,C3*%
X142553500Y-88796000D03*
X140478500Y-88796000D03*
%TD*%
D25*
%TO.C,R9*%
X138648000Y-86156000D03*
X136648000Y-86156000D03*
%TD*%
D15*
%TO.C,J2*%
X155194000Y-83058000D03*
D16*
X152654000Y-83058000D03*
X150114000Y-83058000D03*
X147574000Y-83058000D03*
X145034000Y-83058000D03*
X142494000Y-83058000D03*
X139954000Y-83058000D03*
X137414000Y-83058000D03*
X134874000Y-83058000D03*
X132334000Y-83058000D03*
%TD*%
D18*
%TO.C,D1*%
X134863000Y-102666000D03*
X132813000Y-102666000D03*
%TD*%
D10*
%TO.C,R3*%
X141712000Y-100650000D03*
X141712000Y-102650000D03*
%TD*%
D26*
%TO.C,U2*%
X148826000Y-91156000D03*
X149776000Y-91156000D03*
X150726000Y-91156000D03*
X150726000Y-88456000D03*
X149776000Y-88456000D03*
X148826000Y-88456000D03*
%TD*%
M02*
