%TF.GenerationSoftware,KiCad,Pcbnew,9.0.6-rc1*%
%TF.CreationDate,2025-12-07T23:50:49+09:00*%
%TF.ProjectId,tp4056,74703430-3536-42e6-9b69-6361645f7063,rev?*%
%TF.SameCoordinates,Original*%
%TF.FileFunction,Legend,Bot*%
%TF.FilePolarity,Positive*%
%FSLAX46Y46*%
G04 Gerber Fmt 4.6, Leading zero omitted, Abs format (unit mm)*
G04 Created by KiCad (PCBNEW 9.0.6-rc1) date 2025-12-07 23:50:49*
%MOMM*%
%LPD*%
G01*
G04 APERTURE LIST*
%ADD10C,0.150000*%
G04 APERTURE END LIST*
D10*
X153373618Y-97057009D02*
X153230761Y-97104628D01*
X153230761Y-97104628D02*
X153183142Y-97152247D01*
X153183142Y-97152247D02*
X153135523Y-97247485D01*
X153135523Y-97247485D02*
X153135523Y-97390342D01*
X153135523Y-97390342D02*
X153183142Y-97485580D01*
X153183142Y-97485580D02*
X153230761Y-97533200D01*
X153230761Y-97533200D02*
X153325999Y-97580819D01*
X153325999Y-97580819D02*
X153706951Y-97580819D01*
X153706951Y-97580819D02*
X153706951Y-96580819D01*
X153706951Y-96580819D02*
X153373618Y-96580819D01*
X153373618Y-96580819D02*
X153278380Y-96628438D01*
X153278380Y-96628438D02*
X153230761Y-96676057D01*
X153230761Y-96676057D02*
X153183142Y-96771295D01*
X153183142Y-96771295D02*
X153183142Y-96866533D01*
X153183142Y-96866533D02*
X153230761Y-96961771D01*
X153230761Y-96961771D02*
X153278380Y-97009390D01*
X153278380Y-97009390D02*
X153373618Y-97057009D01*
X153373618Y-97057009D02*
X153706951Y-97057009D01*
X152706951Y-97199866D02*
X151945047Y-97199866D01*
X133878857Y-101400819D02*
X134212190Y-100924628D01*
X134450285Y-101400819D02*
X134450285Y-100400819D01*
X134450285Y-100400819D02*
X134069333Y-100400819D01*
X134069333Y-100400819D02*
X133974095Y-100448438D01*
X133974095Y-100448438D02*
X133926476Y-100496057D01*
X133926476Y-100496057D02*
X133878857Y-100591295D01*
X133878857Y-100591295D02*
X133878857Y-100734152D01*
X133878857Y-100734152D02*
X133926476Y-100829390D01*
X133926476Y-100829390D02*
X133974095Y-100877009D01*
X133974095Y-100877009D02*
X134069333Y-100924628D01*
X134069333Y-100924628D02*
X134450285Y-100924628D01*
X133450285Y-100877009D02*
X133116952Y-100877009D01*
X132974095Y-101400819D02*
X133450285Y-101400819D01*
X133450285Y-101400819D02*
X133450285Y-100400819D01*
X133450285Y-100400819D02*
X132974095Y-100400819D01*
X132545523Y-101400819D02*
X132545523Y-100400819D01*
X132545523Y-100400819D02*
X132307428Y-100400819D01*
X132307428Y-100400819D02*
X132164571Y-100448438D01*
X132164571Y-100448438D02*
X132069333Y-100543676D01*
X132069333Y-100543676D02*
X132021714Y-100638914D01*
X132021714Y-100638914D02*
X131974095Y-100829390D01*
X131974095Y-100829390D02*
X131974095Y-100972247D01*
X131974095Y-100972247D02*
X132021714Y-101162723D01*
X132021714Y-101162723D02*
X132069333Y-101257961D01*
X132069333Y-101257961D02*
X132164571Y-101353200D01*
X132164571Y-101353200D02*
X132307428Y-101400819D01*
X132307428Y-101400819D02*
X132545523Y-101400819D01*
X153015048Y-99036133D02*
X153776953Y-99036133D01*
X151693618Y-92527009D02*
X151550761Y-92574628D01*
X151550761Y-92574628D02*
X151503142Y-92622247D01*
X151503142Y-92622247D02*
X151455523Y-92717485D01*
X151455523Y-92717485D02*
X151455523Y-92860342D01*
X151455523Y-92860342D02*
X151503142Y-92955580D01*
X151503142Y-92955580D02*
X151550761Y-93003200D01*
X151550761Y-93003200D02*
X151645999Y-93050819D01*
X151645999Y-93050819D02*
X152026951Y-93050819D01*
X152026951Y-93050819D02*
X152026951Y-92050819D01*
X152026951Y-92050819D02*
X151693618Y-92050819D01*
X151693618Y-92050819D02*
X151598380Y-92098438D01*
X151598380Y-92098438D02*
X151550761Y-92146057D01*
X151550761Y-92146057D02*
X151503142Y-92241295D01*
X151503142Y-92241295D02*
X151503142Y-92336533D01*
X151503142Y-92336533D02*
X151550761Y-92431771D01*
X151550761Y-92431771D02*
X151598380Y-92479390D01*
X151598380Y-92479390D02*
X151693618Y-92527009D01*
X151693618Y-92527009D02*
X152026951Y-92527009D01*
X151026951Y-92669866D02*
X150265047Y-92669866D01*
X150645999Y-93050819D02*
X150645999Y-92288914D01*
X152066951Y-87759866D02*
X151305047Y-87759866D01*
X151685999Y-88140819D02*
X151685999Y-87378914D01*
X135504666Y-87158438D02*
X135599904Y-87110819D01*
X135599904Y-87110819D02*
X135742761Y-87110819D01*
X135742761Y-87110819D02*
X135885618Y-87158438D01*
X135885618Y-87158438D02*
X135980856Y-87253676D01*
X135980856Y-87253676D02*
X136028475Y-87348914D01*
X136028475Y-87348914D02*
X136076094Y-87539390D01*
X136076094Y-87539390D02*
X136076094Y-87682247D01*
X136076094Y-87682247D02*
X136028475Y-87872723D01*
X136028475Y-87872723D02*
X135980856Y-87967961D01*
X135980856Y-87967961D02*
X135885618Y-88063200D01*
X135885618Y-88063200D02*
X135742761Y-88110819D01*
X135742761Y-88110819D02*
X135647523Y-88110819D01*
X135647523Y-88110819D02*
X135504666Y-88063200D01*
X135504666Y-88063200D02*
X135457047Y-88015580D01*
X135457047Y-88015580D02*
X135457047Y-87682247D01*
X135457047Y-87682247D02*
X135647523Y-87682247D01*
X134457047Y-88110819D02*
X134790380Y-87634628D01*
X135028475Y-88110819D02*
X135028475Y-87110819D01*
X135028475Y-87110819D02*
X134647523Y-87110819D01*
X134647523Y-87110819D02*
X134552285Y-87158438D01*
X134552285Y-87158438D02*
X134504666Y-87206057D01*
X134504666Y-87206057D02*
X134457047Y-87301295D01*
X134457047Y-87301295D02*
X134457047Y-87444152D01*
X134457047Y-87444152D02*
X134504666Y-87539390D01*
X134504666Y-87539390D02*
X134552285Y-87587009D01*
X134552285Y-87587009D02*
X134647523Y-87634628D01*
X134647523Y-87634628D02*
X135028475Y-87634628D01*
X134028475Y-87587009D02*
X133695142Y-87587009D01*
X133552285Y-88110819D02*
X134028475Y-88110819D01*
X134028475Y-88110819D02*
X134028475Y-87110819D01*
X134028475Y-87110819D02*
X133552285Y-87110819D01*
X133123713Y-87587009D02*
X132790380Y-87587009D01*
X132647523Y-88110819D02*
X133123713Y-88110819D01*
X133123713Y-88110819D02*
X133123713Y-87110819D01*
X133123713Y-87110819D02*
X132647523Y-87110819D01*
X132218951Y-88110819D02*
X132218951Y-87110819D01*
X132218951Y-87110819D02*
X131647523Y-88110819D01*
X131647523Y-88110819D02*
X131647523Y-87110819D01*
M02*
