%TF.GenerationSoftware,KiCad,Pcbnew,9.0.6-rc1*%
%TF.CreationDate,2025-12-07T23:50:49+09:00*%
%TF.ProjectId,tp4056,74703430-3536-42e6-9b69-6361645f7063,rev?*%
%TF.SameCoordinates,Original*%
%TF.FileFunction,OtherDrawing,Comment*%
%FSLAX46Y46*%
G04 Gerber Fmt 4.6, Leading zero omitted, Abs format (unit mm)*
G04 Created by KiCad (PCBNEW 9.0.6-rc1) date 2025-12-07 23:50:49*
%MOMM*%
%LPD*%
G01*
G04 APERTURE LIST*
%ADD10C,0.000000*%
G04 APERTURE END LIST*
D10*
G36*
X164338159Y-84406105D02*
G01*
X163684903Y-84406105D01*
X163664327Y-84406462D01*
X163644987Y-84407531D01*
X163635780Y-84408332D01*
X163626882Y-84409311D01*
X163618293Y-84410467D01*
X163610012Y-84411800D01*
X163602041Y-84413309D01*
X163594378Y-84414996D01*
X163587024Y-84416858D01*
X163579979Y-84418896D01*
X163573242Y-84421111D01*
X163566815Y-84423500D01*
X163560696Y-84426066D01*
X163554886Y-84428806D01*
X163549788Y-84431468D01*
X163544853Y-84434277D01*
X163540081Y-84437232D01*
X163535471Y-84440333D01*
X163531024Y-84443579D01*
X163526739Y-84446972D01*
X163522617Y-84450511D01*
X163518657Y-84454196D01*
X163514859Y-84458027D01*
X163511223Y-84462004D01*
X163507750Y-84466127D01*
X163504439Y-84470396D01*
X163501290Y-84474811D01*
X163498303Y-84479372D01*
X163495478Y-84484079D01*
X163492815Y-84488932D01*
X163490314Y-84493931D01*
X163487974Y-84499077D01*
X163485797Y-84504368D01*
X163483781Y-84509805D01*
X163481926Y-84515389D01*
X163480233Y-84521118D01*
X163478702Y-84526994D01*
X163477332Y-84533015D01*
X163476123Y-84539183D01*
X163475076Y-84545496D01*
X163474190Y-84551956D01*
X163473466Y-84558561D01*
X163472902Y-84565313D01*
X163472499Y-84572211D01*
X163472178Y-84586444D01*
X163472019Y-84586444D01*
X163472491Y-84603954D01*
X163473909Y-84620764D01*
X163476273Y-84636874D01*
X163479582Y-84652283D01*
X163483837Y-84666993D01*
X163489038Y-84681001D01*
X163495186Y-84694309D01*
X163502280Y-84706916D01*
X163510322Y-84718821D01*
X163519310Y-84730025D01*
X163529246Y-84740527D01*
X163540130Y-84750326D01*
X163551961Y-84759424D01*
X163564741Y-84767819D01*
X163578469Y-84775511D01*
X163593145Y-84782501D01*
X163601290Y-84785846D01*
X163609710Y-84788975D01*
X163618406Y-84791888D01*
X163627378Y-84794586D01*
X163636626Y-84797067D01*
X163646151Y-84799333D01*
X163655953Y-84801383D01*
X163666031Y-84803218D01*
X163676387Y-84804836D01*
X163687020Y-84806239D01*
X163697931Y-84807426D01*
X163709119Y-84808397D01*
X163720586Y-84809152D01*
X163732331Y-84809692D01*
X163744355Y-84810015D01*
X163756657Y-84810123D01*
X164338000Y-84810123D01*
X164338000Y-85090000D01*
X163266120Y-85090000D01*
X163266120Y-84819013D01*
X163422806Y-84819013D01*
X163402818Y-84805537D01*
X163384287Y-84792252D01*
X163367211Y-84779156D01*
X163359217Y-84772679D01*
X163351587Y-84766249D01*
X163344319Y-84759865D01*
X163337415Y-84753528D01*
X163330872Y-84747236D01*
X163324691Y-84740990D01*
X163318873Y-84734790D01*
X163313415Y-84728635D01*
X163308320Y-84722526D01*
X163303585Y-84716461D01*
X163295712Y-84705446D01*
X163288345Y-84694069D01*
X163281485Y-84682332D01*
X163275132Y-84670232D01*
X163269285Y-84657771D01*
X163263946Y-84644948D01*
X163259114Y-84631763D01*
X163254789Y-84618215D01*
X163250973Y-84604304D01*
X163247664Y-84590030D01*
X163244864Y-84575393D01*
X163242573Y-84560392D01*
X163240790Y-84545028D01*
X163239517Y-84529300D01*
X163238752Y-84513208D01*
X163238497Y-84496751D01*
X163238838Y-84476181D01*
X163239859Y-84456084D01*
X163241561Y-84436459D01*
X163243945Y-84417306D01*
X163247009Y-84398627D01*
X163250753Y-84380419D01*
X163255179Y-84362685D01*
X163260286Y-84345422D01*
X163266073Y-84328633D01*
X163272542Y-84312316D01*
X163279691Y-84296471D01*
X163287521Y-84281099D01*
X163296033Y-84266199D01*
X163305225Y-84251772D01*
X163315097Y-84237818D01*
X163325651Y-84224336D01*
X163336994Y-84211505D01*
X163349233Y-84199504D01*
X163362370Y-84188331D01*
X163376404Y-84177988D01*
X163391336Y-84168474D01*
X163407165Y-84159788D01*
X163423893Y-84151931D01*
X163441519Y-84144901D01*
X163460043Y-84138700D01*
X163479467Y-84133326D01*
X163499789Y-84128779D01*
X163521010Y-84125060D01*
X163543131Y-84122168D01*
X163566152Y-84120102D01*
X163590073Y-84118863D01*
X163614894Y-84118450D01*
X164338159Y-84118450D01*
X164338159Y-84406105D01*
G37*
G36*
X164338000Y-86356348D02*
G01*
X164186235Y-86356348D01*
X164186235Y-86356507D01*
X164187790Y-86357698D01*
X164189956Y-86359248D01*
X164192731Y-86361159D01*
X164196117Y-86363432D01*
X164200113Y-86366071D01*
X164204719Y-86369075D01*
X164215763Y-86376192D01*
X164218834Y-86378181D01*
X164221857Y-86380217D01*
X164224832Y-86382302D01*
X164227758Y-86384434D01*
X164230636Y-86386614D01*
X164233466Y-86388841D01*
X164236247Y-86391115D01*
X164238980Y-86393436D01*
X164241664Y-86395803D01*
X164244300Y-86398217D01*
X164246888Y-86400676D01*
X164249427Y-86403182D01*
X164251918Y-86405733D01*
X164254361Y-86408329D01*
X164256755Y-86410971D01*
X164259101Y-86413657D01*
X164266338Y-86421885D01*
X164273284Y-86430080D01*
X164279940Y-86438241D01*
X164286305Y-86446369D01*
X164292378Y-86454464D01*
X164298160Y-86462525D01*
X164303651Y-86470552D01*
X164308850Y-86478546D01*
X164313756Y-86486506D01*
X164318371Y-86494433D01*
X164322692Y-86502327D01*
X164326721Y-86510187D01*
X164330457Y-86518013D01*
X164333900Y-86525806D01*
X164337049Y-86533566D01*
X164339905Y-86541292D01*
X164342530Y-86549083D01*
X164344987Y-86557038D01*
X164347276Y-86565156D01*
X164349398Y-86573439D01*
X164351351Y-86581885D01*
X164353135Y-86590494D01*
X164354750Y-86599268D01*
X164356197Y-86608205D01*
X164357474Y-86617306D01*
X164358581Y-86626570D01*
X164359519Y-86635999D01*
X164360287Y-86645591D01*
X164360885Y-86655346D01*
X164361312Y-86665266D01*
X164361654Y-86685596D01*
X164360984Y-86714784D01*
X164358975Y-86742760D01*
X164355626Y-86769521D01*
X164350938Y-86795069D01*
X164344911Y-86819401D01*
X164337544Y-86842518D01*
X164328837Y-86864420D01*
X164318791Y-86885105D01*
X164307406Y-86904573D01*
X164294681Y-86922825D01*
X164280617Y-86939858D01*
X164265213Y-86955674D01*
X164248470Y-86970271D01*
X164230387Y-86983649D01*
X164210965Y-86995808D01*
X164190204Y-87006747D01*
X164178035Y-87012369D01*
X164165164Y-87017627D01*
X164151591Y-87022520D01*
X164137315Y-87027050D01*
X164122338Y-87031215D01*
X164106661Y-87035018D01*
X164090283Y-87038457D01*
X164073205Y-87041533D01*
X164055428Y-87044246D01*
X164036951Y-87046597D01*
X164017776Y-87048586D01*
X163997903Y-87050212D01*
X163977332Y-87051477D01*
X163956064Y-87052380D01*
X163934100Y-87052921D01*
X163911439Y-87053102D01*
X163264056Y-87053102D01*
X163264056Y-86765447D01*
X163911439Y-86765447D01*
X163933651Y-86765105D01*
X163954448Y-86764080D01*
X163973826Y-86762374D01*
X163982984Y-86761267D01*
X163991786Y-86759990D01*
X164000233Y-86758543D01*
X164008324Y-86756928D01*
X164016060Y-86755144D01*
X164023439Y-86753191D01*
X164030463Y-86751070D01*
X164037129Y-86748780D01*
X164043439Y-86746323D01*
X164049392Y-86743698D01*
X164054418Y-86741229D01*
X164059284Y-86738616D01*
X164063991Y-86735857D01*
X164068539Y-86732953D01*
X164072928Y-86729904D01*
X164077157Y-86726710D01*
X164081227Y-86723372D01*
X164085138Y-86719888D01*
X164088890Y-86716260D01*
X164092483Y-86712486D01*
X164095916Y-86708568D01*
X164099189Y-86704505D01*
X164102304Y-86700297D01*
X164105258Y-86695945D01*
X164108054Y-86691448D01*
X164110690Y-86686806D01*
X164113166Y-86682020D01*
X164115483Y-86677089D01*
X164117640Y-86672013D01*
X164119638Y-86666793D01*
X164121476Y-86661428D01*
X164123154Y-86655919D01*
X164124673Y-86650265D01*
X164126031Y-86644467D01*
X164127231Y-86638524D01*
X164128270Y-86632438D01*
X164129149Y-86626206D01*
X164129869Y-86619831D01*
X164130429Y-86613311D01*
X164130829Y-86606647D01*
X164131149Y-86592886D01*
X164130695Y-86575261D01*
X164129333Y-86558343D01*
X164127063Y-86542133D01*
X164123886Y-86526630D01*
X164119801Y-86511835D01*
X164114807Y-86497748D01*
X164108906Y-86484370D01*
X164102097Y-86471700D01*
X164094381Y-86459739D01*
X164085756Y-86448487D01*
X164076224Y-86437944D01*
X164065783Y-86428111D01*
X164054435Y-86418987D01*
X164042179Y-86410573D01*
X164029015Y-86402870D01*
X164014944Y-86395877D01*
X164006900Y-86392532D01*
X163998542Y-86389403D01*
X163989872Y-86386490D01*
X163980887Y-86383792D01*
X163971588Y-86381310D01*
X163961974Y-86379044D01*
X163952045Y-86376994D01*
X163941800Y-86375160D01*
X163931238Y-86373542D01*
X163920360Y-86372139D01*
X163909165Y-86370952D01*
X163897652Y-86369981D01*
X163885821Y-86369226D01*
X163873672Y-86368686D01*
X163861203Y-86368362D01*
X163848415Y-86368254D01*
X163264056Y-86368254D01*
X163264056Y-86083457D01*
X164338000Y-86083457D01*
X164338000Y-86356348D01*
G37*
G36*
X163878895Y-82430302D02*
G01*
X163878895Y-83165314D01*
X163898726Y-83164220D01*
X163917799Y-83162427D01*
X163936114Y-83159934D01*
X163953671Y-83156741D01*
X163970471Y-83152850D01*
X163986514Y-83148258D01*
X164001802Y-83142967D01*
X164016333Y-83136977D01*
X164030109Y-83130287D01*
X164043130Y-83122898D01*
X164055397Y-83114809D01*
X164066910Y-83106021D01*
X164077669Y-83096533D01*
X164087675Y-83086346D01*
X164096929Y-83075459D01*
X164105431Y-83063873D01*
X164110332Y-83056517D01*
X164114912Y-83048975D01*
X164119174Y-83041248D01*
X164123117Y-83033336D01*
X164126742Y-83025238D01*
X164130049Y-83016955D01*
X164133039Y-83008488D01*
X164135713Y-82999837D01*
X164138070Y-82991001D01*
X164140111Y-82981981D01*
X164141837Y-82972778D01*
X164143249Y-82963391D01*
X164144345Y-82953821D01*
X164145128Y-82944068D01*
X164145598Y-82934132D01*
X164145754Y-82924014D01*
X164145562Y-82913306D01*
X164144987Y-82902850D01*
X164144028Y-82892648D01*
X164142686Y-82882699D01*
X164140959Y-82873003D01*
X164138847Y-82863560D01*
X164136351Y-82854370D01*
X164133471Y-82845432D01*
X164130205Y-82836748D01*
X164126553Y-82828317D01*
X164122517Y-82820139D01*
X164118094Y-82812214D01*
X164113286Y-82804542D01*
X164108091Y-82797123D01*
X164102509Y-82789957D01*
X164096541Y-82783044D01*
X164093128Y-82779379D01*
X164089554Y-82775766D01*
X164085820Y-82772207D01*
X164081926Y-82768699D01*
X164077873Y-82765245D01*
X164073659Y-82761844D01*
X164069285Y-82758497D01*
X164064752Y-82755203D01*
X164060058Y-82751963D01*
X164055204Y-82748778D01*
X164050191Y-82745646D01*
X164045017Y-82742570D01*
X164039683Y-82739548D01*
X164034190Y-82736582D01*
X164028536Y-82733670D01*
X164022723Y-82730815D01*
X164022723Y-82444113D01*
X164034671Y-82445784D01*
X164046646Y-82448058D01*
X164058647Y-82450937D01*
X164070672Y-82454420D01*
X164082723Y-82458509D01*
X164094799Y-82463204D01*
X164106899Y-82468505D01*
X164119024Y-82474415D01*
X164131173Y-82480933D01*
X164143346Y-82488060D01*
X164155543Y-82495796D01*
X164167763Y-82504143D01*
X164180006Y-82513101D01*
X164192273Y-82522671D01*
X164204562Y-82532854D01*
X164216874Y-82543649D01*
X164235847Y-82561315D01*
X164253597Y-82579845D01*
X164270123Y-82599237D01*
X164285424Y-82619492D01*
X164299501Y-82640611D01*
X164312354Y-82662593D01*
X164323984Y-82685438D01*
X164334388Y-82709146D01*
X164343569Y-82733718D01*
X164351526Y-82759153D01*
X164358259Y-82785451D01*
X164363767Y-82812612D01*
X164368052Y-82840636D01*
X164371112Y-82869523D01*
X164372948Y-82899274D01*
X164373560Y-82929888D01*
X164373045Y-82955326D01*
X164371498Y-82980386D01*
X164368921Y-83005066D01*
X164365313Y-83029367D01*
X164360672Y-83053290D01*
X164355000Y-83076834D01*
X164348296Y-83100001D01*
X164340560Y-83122789D01*
X164331791Y-83145200D01*
X164321990Y-83167233D01*
X164311155Y-83188889D01*
X164299287Y-83210169D01*
X164286386Y-83231071D01*
X164272451Y-83251597D01*
X164257483Y-83271747D01*
X164241480Y-83291520D01*
X164224342Y-83310494D01*
X164205910Y-83328244D01*
X164186183Y-83344769D01*
X164165161Y-83360071D01*
X164142844Y-83374148D01*
X164119233Y-83387001D01*
X164094326Y-83398630D01*
X164068125Y-83409035D01*
X164040629Y-83418216D01*
X164011838Y-83426173D01*
X163981753Y-83432905D01*
X163950372Y-83438414D01*
X163917697Y-83442698D01*
X163883727Y-83445759D01*
X163848462Y-83447595D01*
X163811903Y-83448207D01*
X163777555Y-83447654D01*
X163744223Y-83445997D01*
X163711907Y-83443234D01*
X163693792Y-83440996D01*
X163680606Y-83439366D01*
X163650322Y-83434394D01*
X163621053Y-83428316D01*
X163592800Y-83421133D01*
X163565562Y-83412845D01*
X163539341Y-83403452D01*
X163514135Y-83392954D01*
X163489945Y-83381351D01*
X163466770Y-83368643D01*
X163444612Y-83354830D01*
X163423469Y-83339912D01*
X163403342Y-83323888D01*
X163384230Y-83306760D01*
X163366209Y-83288752D01*
X163349352Y-83270088D01*
X163333659Y-83250769D01*
X163319130Y-83230793D01*
X163305765Y-83210161D01*
X163293563Y-83188872D01*
X163282524Y-83166925D01*
X163272649Y-83144319D01*
X163263936Y-83121056D01*
X163256385Y-83097133D01*
X163249997Y-83072550D01*
X163244771Y-83047308D01*
X163240706Y-83021406D01*
X163237803Y-82994842D01*
X163236062Y-82967617D01*
X163235481Y-82939730D01*
X163235483Y-82939572D01*
X163467097Y-82939572D01*
X163467336Y-82951603D01*
X163468050Y-82963288D01*
X163469242Y-82974629D01*
X163470910Y-82985624D01*
X163473055Y-82996276D01*
X163475678Y-83006584D01*
X163478779Y-83016548D01*
X163482357Y-83026170D01*
X163486414Y-83035450D01*
X163490949Y-83044387D01*
X163495962Y-83052984D01*
X163501454Y-83061239D01*
X163507426Y-83069154D01*
X163513876Y-83076729D01*
X163520806Y-83083965D01*
X163528216Y-83090861D01*
X163536033Y-83097430D01*
X163544186Y-83103683D01*
X163552674Y-83109621D01*
X163561499Y-83115244D01*
X163570660Y-83120553D01*
X163580159Y-83125547D01*
X163589995Y-83130228D01*
X163600170Y-83134597D01*
X163610683Y-83138652D01*
X163621535Y-83142396D01*
X163632726Y-83145828D01*
X163644257Y-83148949D01*
X163656129Y-83151759D01*
X163668342Y-83154259D01*
X163680896Y-83156449D01*
X163693792Y-83158329D01*
X163693792Y-82721926D01*
X163693634Y-82721926D01*
X163679915Y-82722999D01*
X163666621Y-82724493D01*
X163653749Y-82726406D01*
X163641301Y-82728740D01*
X163629274Y-82731493D01*
X163617670Y-82734665D01*
X163606487Y-82738256D01*
X163595725Y-82742266D01*
X163585383Y-82746694D01*
X163575461Y-82751541D01*
X163565959Y-82756806D01*
X163556876Y-82762489D01*
X163548211Y-82768590D01*
X163539964Y-82775108D01*
X163532135Y-82782043D01*
X163524724Y-82789395D01*
X163517746Y-82797071D01*
X163511218Y-82804977D01*
X163505140Y-82813112D01*
X163499512Y-82821477D01*
X163494335Y-82830071D01*
X163489608Y-82838893D01*
X163485331Y-82847943D01*
X163481504Y-82857221D01*
X163478128Y-82866725D01*
X163475201Y-82876456D01*
X163472725Y-82886413D01*
X163470699Y-82896596D01*
X163469123Y-82907003D01*
X163467998Y-82917635D01*
X163467323Y-82928492D01*
X163467097Y-82939572D01*
X163235483Y-82939572D01*
X163235679Y-82923077D01*
X163236270Y-82906631D01*
X163237255Y-82890394D01*
X163238634Y-82874365D01*
X163240406Y-82858545D01*
X163242572Y-82842933D01*
X163245131Y-82827529D01*
X163248082Y-82812334D01*
X163251426Y-82797347D01*
X163255162Y-82782568D01*
X163259291Y-82767998D01*
X163263811Y-82753636D01*
X163268723Y-82739482D01*
X163274026Y-82725537D01*
X163279720Y-82711800D01*
X163285805Y-82698272D01*
X163292313Y-82684995D01*
X163299274Y-82672011D01*
X163306689Y-82659321D01*
X163314559Y-82646924D01*
X163322882Y-82634820D01*
X163331659Y-82623008D01*
X163340890Y-82611490D01*
X163350575Y-82600264D01*
X163360714Y-82589329D01*
X163371307Y-82578687D01*
X163382354Y-82568336D01*
X163393854Y-82558277D01*
X163405809Y-82548508D01*
X163418217Y-82539031D01*
X163431080Y-82529844D01*
X163444396Y-82520948D01*
X163456453Y-82513233D01*
X163468751Y-82505865D01*
X163481291Y-82498843D01*
X163494070Y-82492167D01*
X163507090Y-82485839D01*
X163520349Y-82479858D01*
X163533847Y-82474224D01*
X163547584Y-82468938D01*
X163561559Y-82463999D01*
X163575771Y-82459409D01*
X163590221Y-82455167D01*
X163604907Y-82451274D01*
X163619830Y-82447730D01*
X163634989Y-82444534D01*
X163650383Y-82441688D01*
X163666011Y-82439192D01*
X163685485Y-82436661D01*
X163706999Y-82434543D01*
X163730551Y-82432835D01*
X163756142Y-82431532D01*
X163783772Y-82430631D01*
X163813440Y-82430128D01*
X163845148Y-82430019D01*
X163878895Y-82430302D01*
G37*
G36*
X163526564Y-85237094D02*
G01*
X163525438Y-85249285D01*
X163524550Y-85260732D01*
X163523930Y-85271451D01*
X163523513Y-85281305D01*
X163523216Y-85290163D01*
X163523037Y-85298039D01*
X163522977Y-85304947D01*
X163523136Y-85304947D01*
X163523568Y-85325705D01*
X163524862Y-85345592D01*
X163527020Y-85364608D01*
X163530039Y-85382754D01*
X163533921Y-85400029D01*
X163538665Y-85416434D01*
X163544271Y-85431968D01*
X163550739Y-85446631D01*
X163558068Y-85460424D01*
X163566258Y-85473346D01*
X163575308Y-85485397D01*
X163585220Y-85496578D01*
X163595992Y-85506888D01*
X163607624Y-85516327D01*
X163620116Y-85524896D01*
X163633467Y-85532594D01*
X163641497Y-85536544D01*
X163650047Y-85540237D01*
X163659119Y-85543674D01*
X163668712Y-85546855D01*
X163678828Y-85549780D01*
X163689465Y-85552449D01*
X163700625Y-85554863D01*
X163712307Y-85557022D01*
X163724512Y-85558926D01*
X163737239Y-85560576D01*
X163750490Y-85561971D01*
X163764265Y-85563112D01*
X163778563Y-85563999D01*
X163793385Y-85564632D01*
X163808732Y-85565012D01*
X163824602Y-85565138D01*
X164338000Y-85565138D01*
X164338000Y-85847872D01*
X163264056Y-85847872D01*
X163264056Y-85579902D01*
X163451222Y-85579902D01*
X163425438Y-85563910D01*
X163401779Y-85548440D01*
X163380245Y-85533490D01*
X163360834Y-85519061D01*
X163343544Y-85505153D01*
X163335693Y-85498394D01*
X163328372Y-85491766D01*
X163321581Y-85485268D01*
X163315318Y-85478900D01*
X163309584Y-85472662D01*
X163304379Y-85466554D01*
X163296390Y-85456518D01*
X163288916Y-85446112D01*
X163281955Y-85435338D01*
X163275509Y-85424195D01*
X163269576Y-85412683D01*
X163264159Y-85400801D01*
X163259256Y-85388550D01*
X163254869Y-85375928D01*
X163250996Y-85362936D01*
X163247640Y-85349574D01*
X163244799Y-85335841D01*
X163242474Y-85321737D01*
X163240665Y-85307262D01*
X163239373Y-85292416D01*
X163238597Y-85277198D01*
X163238339Y-85261608D01*
X163238369Y-85257828D01*
X163238458Y-85254345D01*
X163238607Y-85251160D01*
X163238703Y-85249679D01*
X163238815Y-85248273D01*
X163239083Y-85244726D01*
X163239410Y-85239542D01*
X163239797Y-85232691D01*
X163240244Y-85224143D01*
X163527899Y-85224143D01*
X163526564Y-85237094D01*
G37*
G36*
X163135945Y-83887786D02*
G01*
X162876865Y-83887786D01*
X162876865Y-83602988D01*
X163135945Y-83602988D01*
X163135945Y-83887786D01*
G37*
G36*
X164338000Y-83887786D02*
G01*
X163264056Y-83887786D01*
X163264056Y-83602988D01*
X164338000Y-83602988D01*
X164338000Y-83887786D01*
G37*
G36*
X163473924Y-87367744D02*
G01*
X164041455Y-87367744D01*
X164057171Y-87367484D01*
X164064448Y-87367157D01*
X164071337Y-87366700D01*
X164077839Y-87366112D01*
X164083952Y-87365392D01*
X164089677Y-87364541D01*
X164095013Y-87363557D01*
X164099961Y-87362442D01*
X164104519Y-87361194D01*
X164108689Y-87359814D01*
X164112468Y-87358301D01*
X164115858Y-87356655D01*
X164118858Y-87354876D01*
X164121468Y-87352963D01*
X164123687Y-87350917D01*
X164124684Y-87349808D01*
X164125648Y-87348563D01*
X164126581Y-87347184D01*
X164127483Y-87345671D01*
X164129190Y-87342238D01*
X164130772Y-87338266D01*
X164132226Y-87333755D01*
X164133555Y-87328704D01*
X164134757Y-87323114D01*
X164135832Y-87316984D01*
X164136781Y-87310315D01*
X164137603Y-87303106D01*
X164138299Y-87295357D01*
X164138868Y-87287070D01*
X164139311Y-87278242D01*
X164139627Y-87268875D01*
X164139817Y-87258969D01*
X164139880Y-87248523D01*
X164139873Y-87242004D01*
X164139820Y-87235307D01*
X164139679Y-87228431D01*
X164139561Y-87224926D01*
X164139404Y-87221377D01*
X164139136Y-87214263D01*
X164138808Y-87207208D01*
X164138421Y-87200213D01*
X164137975Y-87193278D01*
X164347842Y-87193278D01*
X164352764Y-87326311D01*
X164353303Y-87350702D01*
X164353196Y-87374107D01*
X164352441Y-87396526D01*
X164351040Y-87417959D01*
X164348992Y-87438406D01*
X164346298Y-87457867D01*
X164342958Y-87476342D01*
X164338972Y-87493831D01*
X164334341Y-87510335D01*
X164329064Y-87525852D01*
X164323143Y-87540383D01*
X164316576Y-87553928D01*
X164309365Y-87566488D01*
X164301510Y-87578061D01*
X164293010Y-87588648D01*
X164283866Y-87598249D01*
X164277621Y-87603987D01*
X164270970Y-87609352D01*
X164263913Y-87614346D01*
X164256450Y-87618969D01*
X164248580Y-87623220D01*
X164240303Y-87627101D01*
X164231620Y-87630610D01*
X164222529Y-87633750D01*
X164213031Y-87636519D01*
X164203125Y-87638918D01*
X164192812Y-87640948D01*
X164182090Y-87642608D01*
X164170960Y-87643898D01*
X164159421Y-87644820D01*
X164147474Y-87645373D01*
X164135117Y-87645557D01*
X163473924Y-87645557D01*
X163473924Y-87795258D01*
X163273899Y-87795258D01*
X163273899Y-87645557D01*
X162974337Y-87645557D01*
X162974337Y-87367744D01*
X163273899Y-87367744D01*
X163273899Y-87193278D01*
X163473924Y-87193278D01*
X163473924Y-87367744D01*
G37*
M02*
